<?xml version="1.0" encoding="UTF-8" standalone="no"?>
<!DOCTYPE svg PUBLIC "-//W3C//DTD SVG 1.1//EN" "http://www.w3.org/Graphics/SVG/1.1/DTD/svg11.dtd">
<svg width="100%" height="100%" viewBox="0 0 1000 1000" version="1.1" xmlns="http://www.w3.org/2000/svg" xmlns:xlink="http://www.w3.org/1999/xlink" xml:space="preserve" xmlns:serif="http://www.serif.com/" style="fill-rule:evenodd;clip-rule:evenodd;stroke-linejoin:round;stroke-miterlimit:2;">
    <g transform="matrix(1,0,0,1,-15.314099,-14.041794)">
        <path d="M81,124L234,124C234,124 949.444,-66.039 950,330L950,903L796,903C785.796,905.65 775.586,908.302 765.277,910.51C748.411,914.122 82.282,1080.419 81,699C80.356,507.334 80.678,315.666 81,124ZM280.166,539.301L280.377,692.3C280.062,714.695 295.421,724.28 295.421,724.28C340.098,762.686 470.482,768.038 470.482,768.038C673.752,776.194 738.429,729.667 738.429,729.667C752.491,723.629 750.399,707.651 750.399,707.651C753.572,676.273 744.345,668.659 744.345,668.659C735.191,609.716 537.241,593.945 537.241,593.945C314.904,574.558 280.166,539.301 280.166,539.301ZM751,490C751,490 750.654,359.394 751,337C751.346,314.606 736,305 736,305C691.377,266.532 561,261 561,261C357.742,252.562 293,299 293,299C278.93,305.019 281,321 281,321C277.784,352.373 287,360 287,360C296.073,418.955 494,435 494,435C716.311,454.695 751,490 751,490Z"/>
    </g>
</svg>
